<svg xmlns="http://www.w3.org/2000/svg" version="1.0" preserveAspectRatio="xMidYMid meet" viewBox="827 1266 827 953.3">

<g transform="translate(0.000000,3508.000000) scale(0.100000,-0.100000)" fill="#ccd6f6" stroke="none">
<path d="M12040 22213 c-348 -201 -1494 -863 -1820 -1051 -91 -52 -275 -159 -410 -237 -135 -77 -369 -212 -520 -300 -151 -87 -311 -179 -355 -205 -44 -26 -212 -123 -372 -216 l-293 -168 0 -2385 1 -2386 252 -144 c139 -80 641 -370 1117 -644 476 -275 1072 -619 1325 -765 253 -146 586 -338 740 -427 565 -327 690 -398 700 -398 10 0 231 126 1385 793 786 454 2199 1270 2403 1387 108 62 230 133 270 156 l72 43 3 2387 2 2386 -22 12 c-26 13 -445 254 -583 334 -78 46 -393 228 -1355 783 -129 74 -377 217 -550 317 -306 177 -452 261 -710 410 -69 39 -183 106 -255 147 -487 282 -655 378 -662 378 -5 -1 -168 -93 -363 -207z m802 -2306 c208 -543 1491 -3873 1505 -3904 4 -10 -79 -13 -395 -13 l-401 0 -59 153 c-32 83 -104 270 -158 414 l-99 263 -827 0 -826 0 -11 -32 c-7 -18 -80 -205 -164 -415 l-152 -383 -398 0 c-376 0 -399 1 -394 18 2 9 72 193 155 407 318 825 546 1414 687 1780 251 648 687 1779 697 1808 l10 27 391 0 392 0 47 -123z"/>
<path d="M12378 18877 c-15 -40 -74 -193 -132 -342 -58 -148 -165 -425 -239 -615 l-134 -345 530 -3 c292 -1 532 0 534 2 5 5 -515 1357 -526 1368 -3 4 -18 -25 -33 -65z"/>
</g>
</svg>